<?xml version="1.0" encoding="UTF-8" standalone="no"?>
<!-- Created with Inkscape (http://www.inkscape.org/) -->

<svg
   xmlns:dc="http://purl.org/dc/elements/1.1/"
   xmlns:cc="http://creativecommons.org/ns#"
   xmlns:rdf="http://www.w3.org/1999/02/22-rdf-syntax-ns#"
   xmlns:svg="http://www.w3.org/2000/svg"
   xmlns="http://www.w3.org/2000/svg"
   xmlns:xlink="http://www.w3.org/1999/xlink"
   xmlns:sodipodi="http://sodipodi.sourceforge.net/DTD/sodipodi-0.dtd"
   xmlns:inkscape="http://www.inkscape.org/namespaces/inkscape"
   width="88.840065mm"
   height="111.47778mm"
   viewBox="0 0 314.78763 394.99999"
   id="svg6172"
   version="1.1"
   inkscape:version="0.91 r13725"
   sodipodi:docname="GSIS.svg">
  <defs
     id="defs6174" />
  <sodipodi:namedview
     id="base"
     pagecolor="#ffffff"
     bordercolor="#666666"
     borderopacity="1.0"
     inkscape:pageopacity="0.0"
     inkscape:pageshadow="2"
     inkscape:zoom="0.3609375"
     inkscape:cx="-46.832802"
     inkscape:cy="237.88976"
     inkscape:document-units="px"
     inkscape:current-layer="layer1"
     showgrid="false"
     fit-margin-top="0"
     fit-margin-left="0"
     fit-margin-right="0"
     fit-margin-bottom="0"
     inkscape:window-width="1366"
     inkscape:window-height="705"
     inkscape:window-x="-4"
     inkscape:window-y="-4"
     inkscape:window-maximized="1" />
  <metadata
     id="metadata6177">
    <rdf:RDF>
      <cc:Work
         rdf:about="">
        <dc:format>image/svg+xml</dc:format>
        <dc:type
           rdf:resource="http://purl.org/dc/dcmitype/StillImage" />
        <dc:title></dc:title>
      </cc:Work>
    </rdf:RDF>
  </metadata>
  <g
     inkscape:label="Layer 1"
     inkscape:groupmode="layer"
     id="layer1"
     transform="translate(-59.432894,-485.08971)">
    <g
       id="g7171"
       transform="matrix(0.49409697,0,0,0.49409697,30.067281,445.24005)">
      <rect
         y="174.41516"
         x="154.76781"
         height="423.67432"
         width="447.73105"
         id="rect7110"
         style="fill:#0038a8;fill-opacity:1;stroke:#0038a8;stroke-width:187.52732849;stroke-linecap:round;stroke-linejoin:round;stroke-miterlimit:4;stroke-dasharray:none;stroke-dashoffset:0;stroke-opacity:1" />
      <g
         transform="matrix(18.487415,-4.8765489,4.9223383,18.400461,414.63239,573.86398)"
         id="j"
         style="fill:#fcd116">
        <g
           id="i">
          <g
             id="h">
            <!-- these coordinates are  -1/(1+tan(k*Pi/48)),1-1/(1+tan(k*Pi/48)) -->
            <path
               id="path6918"
               transform="scale(19,19)"
               d="M -1,0 -0.93848823,0.06151177 0,0 -0.93848823,-0.06151177 Z"
               inkscape:connector-curvature="0" />
            <path
               transform="scale(19.238092,19.238092)"
               d="m -0.88366349,0.11633651 0.0495742,0.0495742 L 0,0 Z"
               id="g"
               inkscape:connector-curvature="0" />
            <use
               id="use6921"
               transform="scale(1,-1)"
               xlink:href="#g"
               x="0"
               y="0"
               width="100%"
               height="100%" />
          </g>
          <use
             id="use6923"
             transform="matrix(0.70710678,0.70710678,-0.70710678,0.70710678,0,0)"
             xlink:href="#h"
             x="0"
             y="0"
             width="100%"
             height="100%" />
        </g>
        <use
           id="use6925"
           transform="matrix(0,1,-1,0,0,0)"
           xlink:href="#i"
           x="0"
           y="0"
           width="100%"
           height="100%" />
      </g>
      <rect
         y="592.19977"
         x="118.30038"
         height="70.101646"
         width="522.16479"
         id="rect7110-8"
         style="fill:#009e00;fill-opacity:1;stroke:#009e00;stroke-width:111.76051331;stroke-linecap:round;stroke-linejoin:round;stroke-miterlimit:4;stroke-dasharray:none;stroke-dashoffset:0;stroke-opacity:1" />
      <rect
         y="585.55487"
         x="112.70223"
         height="56.731571"
         width="533.03711"
         id="rect7110-8-1"
         style="fill:#0038a8;fill-opacity:1;stroke:#0038a8;stroke-width:101.58080292;stroke-linecap:round;stroke-linejoin:round;stroke-miterlimit:4;stroke-dasharray:none;stroke-dashoffset:0;stroke-opacity:1" />
      <path
         sodipodi:open="true"
         d="M 90.238581,721.21903 A 172.07785,171.42729 0 0 1 138.42938,531.82482 172.07785,171.42729 0 0 1 333.3733,510.40829 172.07785,171.42729 0 0 1 421.83242,684.79015"
         sodipodi:end="0.13843141"
         sodipodi:start="2.7834951"
         sodipodi:ry="171.42729"
         sodipodi:rx="172.07785"
         sodipodi:cy="661.13495"
         sodipodi:cx="251.40073"
         sodipodi:type="arc"
         transform="matrix(0.96692712,-0.25505282,0.25842469,0.96603141,0,0)"
         id="circle6913"
         style="fill:#fcd116" />
      <path
         sodipodi:nodetypes="czccccccc"
         inkscape:connector-curvature="0"
         id="path7146"
         d="m 696.10389,475.39251 c 0,0 -73.06788,-5.97989 -130.90908,0 -57.8412,5.97989 -215.41126,45.02164 -215.41126,45.02164 l -176.62338,68.57143 -105.281382,96.62337 15.930736,7.96538 588.398266,6.23376 24.24242,-42.94373 z"
         style="fill:#009e00;fill-opacity:1;fill-rule:evenodd;stroke:none;stroke-width:1px;stroke-linecap:butt;stroke-linejoin:miter;stroke-opacity:1" />
      <path
         sodipodi:nodetypes="cccc"
         inkscape:connector-curvature="0"
         id="path7127"
         d="m 59.432895,613.08734 c 0.274462,24.51083 -0.295722,62.17403 9.128136,75.58843 C 228.91433,572.65933 373.43537,523.67682 569.26747,476.18872 388.41054,477.89551 231.18069,523.34854 59.432895,613.08734 Z"
         style="fill:#ffffff;fill-opacity:1;fill-rule:evenodd;stroke:none;stroke-width:1px;stroke-linecap:butt;stroke-linejoin:miter;stroke-opacity:1" />
      <path
         sodipodi:nodetypes="ccccccc"
         inkscape:connector-curvature="0"
         id="path7148"
         d="m 260.55814,744.29629 -3.91817,17.14198 C 123.36393,730.87349 133.66983,883.54434 251.0076,865.26971 l -3.67328,-49.46686 23.99878,0.97954 c 0,0 -4.89771,43.09984 -1.22443,56.56854 C 90.774213,917.04092 98.545302,713.58747 260.55814,744.29629 Z"
         style="fill:#000000;fill-opacity:1;fill-rule:evenodd;stroke:none;stroke-width:1px;stroke-linecap:butt;stroke-linejoin:miter;stroke-opacity:1" />
      <path
         sodipodi:nodetypes="cccccscsccc"
         inkscape:connector-curvature="0"
         id="path7150"
         d="m 401.12239,761.92804 c -85.20298,-22.12886 -101.81522,25.49283 -25.62894,41.37843 50.64328,13.91524 54.41207,65.26586 1.91707,74.7393 -29.44092,4.91393 -71.42613,-1.51133 -71.42613,-1.51133 l 4.16305,-15.79511 c 0,0 21.02347,5.78384 48.85465,5.50992 20.03776,-0.19722 41.85758,-7.45323 35.87572,-25.2232 -7.4184,-16.09666 -41.76701,-23.66053 -63.54777,-33.30442 -31.71239,-14.04133 -32.72453,-48.19739 5.38747,-61.95602 21.90987,-7.07691 68.52082,-0.92013 68.52082,-0.92013 z"
         style="fill:#000000;fill-opacity:1;fill-rule:evenodd;stroke:none;stroke-width:1px;stroke-linecap:butt;stroke-linejoin:miter;stroke-opacity:1" />
      <path
         sodipodi:nodetypes="ccsccac"
         inkscape:connector-curvature="0"
         id="path7154"
         d="m 458.52814,877.81675 22.85714,-0.69264 c 0,0 -2.14714,-39.1244 -2.07792,-63.37662 0.0577,-20.21381 2.07792,-69.95671 2.07792,-69.95671 l -24.93506,0 c 0,0 3.83758,46.36778 4.15584,69.61038 0.29413,21.48102 -2.07792,64.41559 -2.07792,64.41559 z"
         style="fill:#000000;fill-opacity:1;fill-rule:evenodd;stroke:none;stroke-width:1px;stroke-linecap:butt;stroke-linejoin:miter;stroke-opacity:1" />
      <path
         sodipodi:nodetypes="cccccscsccc"
         inkscape:connector-curvature="0"
         id="path7150-5"
         d="m 618.96872,762.12107 c -85.20298,-22.12886 -101.81522,25.49283 -25.62894,41.37843 50.64328,13.91524 54.41207,65.26586 1.91707,74.7393 -29.44092,4.91393 -71.42613,-1.51133 -71.42613,-1.51133 l 4.16305,-15.79511 c 0,0 21.02347,5.78384 48.85465,5.50992 20.03776,-0.19722 41.85758,-7.45323 35.87572,-25.2232 -7.4184,-16.09666 -41.76701,-23.66053 -63.54777,-33.30442 -31.71239,-14.04133 -32.72453,-48.19739 5.38747,-61.95602 21.90987,-7.07691 68.52082,-0.92013 68.52082,-0.92013 z"
         style="fill:#000000;fill-opacity:1;fill-rule:evenodd;stroke:none;stroke-width:1px;stroke-linecap:butt;stroke-linejoin:miter;stroke-opacity:1" />
    </g>
  </g>
</svg>
